<?xml version="1.0" encoding="iso-8859-1"?>
<!-- Generator: Adobe Illustrator 19.0.0, SVG Export Plug-In . SVG Version: 6.00 Build 0)  -->
<svg version="1.1" id="Layer_1" xmlns="http://www.w3.org/2000/svg" xmlns:xlink="http://www.w3.org/1999/xlink" x="0px" y="0px"
	 viewBox="0 0 512 512" style="enable-background:new 0 0 512 512;" xml:space="preserve">
<circle style="fill:#E4E7ED;" cx="256" cy="256" r="256"/>
<path style="fill:#FED298;" d="M292.444,252.149H256h-36.444l-5.845,61.129l-15.471,22.485l-98.467,38.094
	c0,0-28.536,21.247-32.456,41.601c-0.55,2.888-0.963,7.082-1.306,12.102c46.827,51.846,114.626,84.371,189.989,84.371
	s143.093-32.593,189.989-84.371c-0.344-5.088-0.756-9.214-1.306-12.102c-3.851-20.353-32.456-41.601-32.456-41.601l-98.467-38.094
	l-15.471-22.485L292.444,252.149z"/>
<path style="fill:#F0B97D;" d="M295.194,285.361l0.963,9.695c-5.363,6.257-10.933,12.308-16.228,18.084
	c-5.982,6.532-42.77,6.67-48.821-0.275c-4.882-5.638-10.314-11.827-15.678-18.359l0.894-9.627
	c5.02,5.845,10.108,11.346,14.715,16.434c5.982,6.601,42.839,6.532,48.821,0.275c4.951-5.226,10.177-10.589,15.265-16.228H295.194z"
	/>
<path style="fill:#FED298;" d="M165.234,159.39c-22.76-4.057-3.369,63.88,13.271,53.772l8.939,26.198
	c8.045,23.585,28.261,45.039,43.664,62.023c6.051,6.601,42.839,6.532,48.821,0.275c17.053-17.947,37.338-38.094,44.97-62.436
	l8.183-26.061c16.64,10.108,35.962-57.76,13.271-53.772c1.582-52.878-35.825-104.105-90.49-104.38
	c-54.734,0.206-92.072,51.503-90.49,104.38H165.234z"/>
<path style="fill:#6B7F9E;" d="M213.643,313.279l-15.471,22.485l-98.467,38.094c-7.082,5.707-29.705,27.436-32.456,41.601
	c-0.688,3.507-1.1,7.564-1.444,11.965C112.632,479.338,180.5,512,255.931,512c72.75,0,141.374-30.599,190.126-84.577
	c-0.344-4.401-0.756-8.458-1.444-11.965c-2.682-14.165-25.304-35.894-32.456-41.601l-98.467-38.094l-15.471-22.485l-42.082,28.467
	l-0.206-0.138l-0.206,0.138L213.643,313.279z"/>
<g>
	<polygon style="fill:#FFFFFF;" points="213.643,313.279 198.24,335.764 226.02,378.946 256.206,341.746 	"/>
	<polygon style="fill:#FFFFFF;" points="298.357,313.279 314.241,335.764 286.393,378.946 256.206,341.746 	"/>
</g>
<g>
	<path style="fill:#FCB072;" d="M380.115,479.957l-1.65-5.363l-0.619,6.67c0.756-0.413,1.513-0.825,2.338-1.306H380.115z"/>
	<path style="fill:#FCB072;" d="M131.885,479.957l1.65-5.363l0.619,6.67c-0.756-0.413-1.513-0.825-2.338-1.306H131.885z"/>
</g>
<polygon style="fill:#8597B1;" points="287.218,455.478 373.858,455.478 373.858,464.967 287.218,464.967 "/>
<path style="fill:#FFFFFF;" d="M297.532,395.655h69.931c3.507,0,6.395,2.888,6.395,6.395v53.497h-76.326V395.655z"/>
<g>
	<path style="fill:#83CF8F;" d="M162.622,159.665C151.826,73.85,221.069,43.664,256,43.664c34.793,0,106.787,31.287,93.378,116.001
		c-4.401-0.344-9.008,4.951-9.008,4.951c-103.211,9.42-65.049,9.352-168.673,0c0,0-4.676-5.295-9.008-4.951H162.622z"/>
	<polygon style="fill:#83CF8F;" points="297.532,395.655 306.952,395.655 306.952,455.478 297.532,455.478 	"/>
</g>
<polygon style="fill:#FFE356;" points="291.825,412.502 302.483,412.708 302.277,455.478 291.619,455.34 "/>
<g>
	<polygon style="fill:#FFFFFF;" points="298.495,412.57 298.701,441.038 297.12,443.582 295.607,441.038 295.813,412.57 
		297.12,412.57 	"/>
	<path style="fill:#FFFFFF;" d="M292.512,410.37h9.145c0.688,0,1.238,0.55,1.238,1.238v5.088h-11.621v-5.088
		C291.275,410.92,291.825,410.37,292.512,410.37z"/>
</g>
<path style="fill:#E4E7ED;" d="M313.21,408.651h54.872v1.169H313.21V408.651z M313.21,433.68h54.872v1.169H313.21V433.68z
	 M313.21,450.046h54.872v1.169H313.21V450.046z M313.21,441.863h54.872v1.169H313.21V441.863z M313.21,425.016h54.872v1.169H313.21
	V425.016z M313.21,416.834h54.872v1.169H313.21V416.834z"/>
<path style="fill:#F0B97D;" d="M192.808,172.523l16.572,27.917c0,0,2.819,4.538,7.358,2.613c4.538-1.857,19.46-17.534,60.167-11.483
	c40.776,6.051,49.784,16.572,53.978,14.371c4.126-2.269,9.97-41.807,9.97-41.807l-50.402-18.909c0,0-53.222-8.32-97.71,27.367
	L192.808,172.523z"/>
<path style="fill:#6B7F9E;" d="M172.798,164.066c28.192-17.947,56.041-26.405,83.752-26.611
	c27.711,0.206,56.178,8.664,84.302,26.611l-17.878,24.685c-22.141-11.758-44.283-16.709-66.424-17.19
	c-22.141,0.481-44.283,5.432-66.424,17.19L172.798,164.066z"/>
<path style="fill:#5D718F;" d="M324.899,186.207l-1.857,2.544c-22.141-11.758-44.283-16.709-66.424-17.19
	c-22.141,0.481-44.283,5.432-66.424,17.19l-1.719-2.407c22.829-11.758,45.589-17.397,68.143-17.603
	c22.485,0.138,45.383,5.776,68.28,17.397V186.207z"/>
<g>
</g>
<g>
</g>
<g>
</g>
<g>
</g>
<g>
</g>
<g>
</g>
<g>
</g>
<g>
</g>
<g>
</g>
<g>
</g>
<g>
</g>
<g>
</g>
<g>
</g>
<g>
</g>
<g>
</g>
</svg>
